<svg xmlns="http://www.w3.org/2000/svg" data-name="Layer 1" viewBox="0 0 100 125" x="0px" y="0px" ><path fill='#007700' d="M88.237,13.807c0-.01,0-.018,0-.028,0-.044.011-.086.011-.129,0-4.679-7.87-7.388-14.613-8.852a12.47,12.47,0,0,0-4.078-2.261c-.03-.008-.06,0-.09-.008a1.178,1.178,0,0,0-.215-.019A1.272,1.272,0,0,0,69,2.527c-.034.007-.066,0-.1.007s-.067.039-.105.053a1.125,1.125,0,0,0-.129.038,14.691,14.691,0,0,1-2.714.882A128.093,128.093,0,0,0,50,2.553a128.115,128.115,0,0,0-15.945.954,13.011,13.011,0,0,0-10.441.406c-.025.014-.04.038-.064.054a1.2,1.2,0,0,0-.17.142,1.235,1.235,0,0,0-.165.189c-.019.029-.049.046-.066.077a.889.889,0,0,0-.037.11,1.2,1.2,0,0,0-.064.116,10.842,10.842,0,0,1-.509,1.155C15.487,7.781,11.754,10.5,11.754,13.65c0,.047.01.092.012.139,0,.006,0,.013,0,.019l.009.071a3.9,3.9,0,0,0,.076.581c.885,6.836,8.511,65.665,9.167,70.855C21.865,92.028,34.867,97.49,50,97.49c15.047,0,28.047-5.455,28.981-12.16.725-5.2,8.3-64.1,9.174-70.883a3.847,3.847,0,0,0,.069-.537Zm-2.463-.2c0,.042-.012.091-.02.156-.067.885-.925,1.848-2.529,2.8a10.786,10.786,0,0,0-.782-1.934c-.014-.025-.039-.042-.055-.066a1.225,1.225,0,0,0-.137-.162,1.178,1.178,0,0,0-.2-.171c-.027-.019-.044-.047-.073-.064a1.093,1.093,0,0,0-.11-.037,1.133,1.133,0,0,0-.118-.065,16.4,16.4,0,0,1-3.83-2.166,12.918,12.918,0,0,0-1.514-3.876C83.176,9.9,85.725,12.114,85.774,13.605ZM61.279,21.811c-.046-.013-.087-.027-.131-.041a20.693,20.693,0,0,0,2.078-3.4c.009-.019.019-.037.027-.057a10.117,10.117,0,0,0,1.1-4.564A7.75,7.75,0,0,1,69.1,16.413a2.881,2.881,0,0,1,.644,2.149,9.44,9.44,0,0,1-2.709,2.591C65.223,21.41,63.316,21.636,61.279,21.811ZM19.67,17.953c-.787-2.229-.663-3.874.4-4.877a22.814,22.814,0,0,0,4.39-5.659l.02-.037c.1-.193.2-.374.283-.544A6.578,6.578,0,0,1,27.2,14.092c-2.277-.005-4.537,1.7-5.9,4.452C20.73,18.35,20.176,18.153,19.67,17.953ZM27.523,16.6a11.271,11.271,0,0,0-.981,2.18c-.008.028,0,.057-.008.085a1.2,1.2,0,0,0-.018.217,1.173,1.173,0,0,0,.016.251.857.857,0,0,0,.007.1c.011.04.039.069.053.107s.017.087.037.127c0,0,.072.156.163.377-1.092-.242-2.134-.5-3.094-.763C24.706,17.489,26.211,16.4,27.523,16.6Zm2.083,4.01c-.062-.206-.124-.4-.184-.575a6.457,6.457,0,0,1,5.134,1.331Q31.925,21.04,29.606,20.614Zm8.53,1.144a8.837,8.837,0,0,0-8.305-4.252A10.469,10.469,0,0,1,39.3,12.493a12.024,12.024,0,0,1,6.02,1.369,9.851,9.851,0,0,1-5.853,8C39.019,21.83,38.569,21.8,38.136,21.758ZM66.4,5.934c.751-.171,1.384-.353,1.9-.525a7.209,7.209,0,0,1-.164,2.772A20.8,20.8,0,0,0,62.6,10.99a7.2,7.2,0,0,0-1.931-.267,19.074,19.074,0,0,0-1.661-1.9c-.351-.35-.7-.651-1.056-.948a3.155,3.155,0,0,1,2.61-1.364,24.108,24.108,0,0,0,5.774-.56Zm5.857,12.283a5.518,5.518,0,0,0-1.188-3.283,9.7,9.7,0,0,0-4.866-3.264,13.88,13.88,0,0,1,3.224-1.3c.032-.008.064-.011.094-.021a3.779,3.779,0,0,1,3.753.736,23.7,23.7,0,0,0,2.74,2.468,1.019,1.019,0,0,0,.083.064,21.161,21.161,0,0,0,3.419,2.157A6.6,6.6,0,0,1,72.261,18.217Zm1.386-9.871a5.86,5.86,0,0,0-2.913-.611A9.765,9.765,0,0,0,70.792,5.8,10.286,10.286,0,0,1,73.647,8.346ZM55.942,6.44a12.7,12.7,0,0,0-3.319-1.382q2.31.043,4.559.159A7.3,7.3,0,0,0,55.942,6.44ZM55.6,9.162c.008,0,.011.013.019.018l.008,0a13.388,13.388,0,0,1,1.634,1.384,12.168,12.168,0,0,1,3.31,5.246A9.593,9.593,0,0,1,51.312,17.5a11.393,11.393,0,0,0-1.231-2.479,8.783,8.783,0,0,0-3.074-7.593A10.217,10.217,0,0,1,55.6,9.162ZM44.934,8.916a6.666,6.666,0,0,1,2.407,3.3,1.184,1.184,0,0,0-.245-.15,11.648,11.648,0,0,0-3.134-1.43C44.374,9.982,44.693,9.4,44.934,8.916Zm2.618,6.8a10.3,10.3,0,0,1,2.078,6.449c0,.037-.006.071-.006.108-2.088-.006-4.082-.063-6.012-.153A11.554,11.554,0,0,0,47.552,15.718ZM51.96,20.2a13.48,13.48,0,0,0,2.639.269,11.533,11.533,0,0,0,5.367-1.309,19,19,0,0,1-1.726,2.288c-.026.028-.034.068-.057.1a1.277,1.277,0,0,0-.092.1,1.041,1.041,0,0,0-.053.151,1.171,1.171,0,0,0-.069.2c-.005.019-.016.036-.019.055-1.866.108-3.836.167-5.858.2,0-.028,0-.054,0-.083A14.947,14.947,0,0,0,51.96,20.2ZM46.342,5.074A11.71,11.71,0,0,0,43.792,6a.83.83,0,0,0-.064.054,1.121,1.121,0,0,0-.168.141,1.242,1.242,0,0,0-.166.189c-.02.029-.05.046-.067.077s-.02.074-.036.109a1.068,1.068,0,0,0-.064.114,15.365,15.365,0,0,1-1.8,3.321,17.337,17.337,0,0,0-2.6-3.274A16.8,16.8,0,0,0,37.566,5.6C40.4,5.327,43.331,5.152,46.342,5.074Zm-9.258,3.4a16.465,16.465,0,0,1,1.4,1.59A12.949,12.949,0,0,0,29.844,13.6a8.9,8.9,0,0,0-3.008-8.264A10.473,10.473,0,0,1,37.084,8.479Zm-16.663.554a21.363,21.363,0,0,1-2.054,2.253,5.753,5.753,0,0,0-1.583,5.281c-1.615-.958-2.479-1.927-2.54-2.816l-.019-.144C14.264,12.4,15.97,10.67,20.421,9.033Zm-5.6,9.14c6.241,4.27,21.042,6.534,35.177,6.534s28.942-2.265,35.181-6.537v.043c-1.956,15.2-8,62.169-8.643,66.777C75.877,89.735,64.815,95.023,50,95.023c-14.89,0-25.936-5.279-26.535-10.018-.584-4.614-6.67-51.578-8.642-66.789Z"/><path fill='#007700' d="M38.173,47.659l5.75,3.362a1.846,1.846,0,0,0,2.538-.681L50,44.131l2.505,4.394-1.791,1.047a1.39,1.39,0,0,0,.7,2.59l.086,0,8.134-.495a1.232,1.232,0,0,0,.958-.557l4.486-6.882a1.389,1.389,0,0,0-1.858-1.965l-1.767,1.033-2.428-4.258a5.17,5.17,0,0,0-4.48-2.615H45.455a5.176,5.176,0,0,0-4.481,2.615l-3.473,6.1A1.865,1.865,0,0,0,38.173,47.659Zm18.707-7.4L59.926,45.6a1.231,1.231,0,0,0,.91.611l-1.973,3.028-3.545.216a1.24,1.24,0,0,0-.065-1.092l-4.181-7.335-1.135-1.993c-.03-.052-.067-.1-.1-.148h4.706A2.7,2.7,0,0,1,56.88,40.257Zm-13.761,0a2.7,2.7,0,0,1,2.336-1.37h0a2.7,2.7,0,0,1,2.336,1.37l.788,1.382-3.954,6.934-4.685-2.739Z"/><path fill='#007700' d="M65.574,50.523a1.843,1.843,0,0,0-2.533-.679l-5.752,3.363a1.863,1.863,0,0,0-.674,2.526l3.56,6.246H55.169V59.886a1.387,1.387,0,0,0-2.631-.615l-3.645,7.381a1.247,1.247,0,0,0-.119.514V63.835a1.854,1.854,0,0,0-1.848-1.856h-7.1l2.512-4.407L44.1,58.605a1.388,1.388,0,0,0,1.861-1.959l-4.489-6.887a1.23,1.23,0,0,0-.958-.557l-8.136-.495a1.334,1.334,0,0,0-1.411.985,1.382,1.382,0,0,0,.628,1.6L33.39,52.34l-2.442,4.282a5.286,5.286,0,0,0,0,5.209L35.491,69.8l0,.005,0,0a5.168,5.168,0,0,0,4.477,2.612h6.952a1.854,1.854,0,0,0,1.848-1.856v-3.33a1.246,1.246,0,0,0,.119.513l3.643,7.378a1.382,1.382,0,0,0,1.243.778,1.439,1.439,0,0,0,.316-.036,1.382,1.382,0,0,0,1.074-1.354V72.417h4.857A5.175,5.175,0,0,0,64.508,69.8l4.544-7.97a5.284,5.284,0,0,0,0-5.208ZM33.093,57.844,36.138,52.5a1.234,1.234,0,0,0,.065-1.091l3.545.215,1.973,3.028a1.3,1.3,0,0,0-.158.031,1.238,1.238,0,0,0-.753.581L36.629,62.6l-1.135,1.991c-.024.042-.031.089-.054.131l-2.347-4.116A2.8,2.8,0,0,1,33.093,57.844ZM46.307,69.95H39.974a2.7,2.7,0,0,1-2.336-1.371,2.8,2.8,0,0,1,0-2.763l.781-1.37h7.888ZM59.056,55.031l4.685-2.739,3.166,5.553a2.8,2.8,0,0,1,0,2.762h0a2.7,2.7,0,0,1-2.336,1.371H63.016Zm3.307,13.548a2.7,2.7,0,0,1-2.337,1.371H53.935a1.227,1.227,0,0,0-.968.47L51.377,67.2l1.59-3.221a1.23,1.23,0,0,0,.968.469H64.571c.052,0,.1-.009.154-.011Z"/></svg>