<svg xmlns="http://www.w3.org/2000/svg" version="1.0" viewBox="0 0 1000 1250" preserveAspectRatio="xMidYMid meet" x="0px" y="0px"><g transform="translate(0.000000,1000.000000) scale(0.100000,-0.100000)" fill="#cecece" stroke="none"><path d="M5048 8174 c-3 -2 -50 -6 -104 -9 -55 -2 -112 -8 -127 -14 -16 -6 -47 -11 -70 -11 -23 0 -74 -9 -112 -20 -38 -11 -82 -20 -97 -20 -15 0 -51 -9 -80 -19 -29 -11 -71 -22 -93 -25 -22 -4 -69 -17 -105 -30 -36 -13 -94 -33 -130 -46 -176 -60 -206 -72 -228 -86 -13 -9 -49 -25 -80 -35 -32 -11 -74 -31 -94 -44 -21 -14 -63 -36 -93 -49 -30 -14 -70 -36 -88 -50 -18 -14 -49 -32 -69 -40 -19 -8 -55 -30 -79 -48 -24 -19 -64 -44 -89 -57 -25 -12 -58 -35 -75 -51 -16 -15 -46 -36 -65 -45 -19 -10 -57 -35 -85 -57 -56 -43 -127 -93 -194 -135 -25 -15 -61 -42 -80 -59 -20 -17 -54 -41 -76 -54 -22 -13 -61 -42 -87 -64 -44 -39 -110 -88 -222 -166 -94 -65 -215 -118 -296 -130 -41 -6 -88 -16 -105 -21 -36 -13 -129 -27 -248 -39 -66 -6 -104 -16 -150 -38 -34 -17 -88 -40 -120 -52 -32 -12 -77 -37 -100 -56 -23 -19 -62 -49 -86 -67 -87 -63 -111 -90 -142 -155 -17 -37 -38 -80 -46 -97 -45 -84 -54 -105 -63 -158 -7 -38 -8 -76 -1 -114 5 -32 10 -87 10 -123 0 -45 8 -85 25 -130 14 -36 32 -90 41 -121 8 -32 31 -80 50 -109 19 -28 43 -71 54 -95 10 -24 43 -70 72 -103 209 -235 224 -270 179 -416 -23 -74 -48 -122 -95 -181 -18 -22 -37 -50 -44 -63 -6 -12 -31 -44 -54 -71 -23 -27 -67 -80 -97 -117 -30 -37 -80 -94 -111 -128 -30 -33 -64 -74 -74 -91 -10 -16 -35 -50 -56 -75 -20 -25 -53 -76 -72 -115 -19 -38 -46 -92 -60 -120 -15 -27 -31 -79 -37 -115 -5 -36 -16 -90 -25 -119 -21 -75 -11 -293 17 -371 10 -30 26 -84 34 -120 8 -36 30 -90 48 -120 18 -30 39 -72 45 -92 7 -20 23 -53 37 -73 14 -20 39 -64 55 -98 43 -84 206 -258 284 -303 33 -20 78 -50 100 -67 22 -18 61 -38 85 -46 25 -7 81 -27 125 -43 81 -31 175 -43 330 -41 106 1 259 20 300 38 22 9 66 23 98 31 31 8 80 25 107 39 27 14 74 34 104 45 30 12 72 34 94 50 22 16 63 40 91 55 29 14 68 41 89 59 20 18 63 50 95 71 32 21 66 49 74 62 9 13 28 30 43 38 14 7 44 31 66 52 21 22 60 53 85 70 25 17 51 39 59 48 22 26 149 118 210 152 78 44 171 64 282 62 201 -4 299 -51 438 -207 36 -40 86 -97 112 -125 26 -29 104 -115 174 -192 236 -259 430 -453 489 -490 18 -11 56 -39 84 -62 28 -22 72 -49 98 -59 26 -10 63 -28 81 -41 18 -12 54 -29 80 -38 26 -10 76 -30 112 -45 36 -16 81 -31 100 -35 19 -4 63 -18 97 -31 34 -13 76 -24 94 -24 18 0 67 -10 108 -21 69 -19 102 -21 381 -22 300 -1 488 10 543 32 16 6 46 11 67 11 21 0 74 11 117 24 43 13 101 29 128 35 28 7 70 25 95 40 25 16 63 34 85 41 48 16 103 49 130 80 11 12 46 40 77 61 32 22 70 56 85 75 15 20 52 64 82 98 29 33 68 90 86 126 18 36 47 92 64 125 19 36 34 82 37 115 3 30 12 84 20 120 25 112 -6 471 -51 585 -13 33 -29 80 -35 105 -7 25 -25 70 -40 100 -16 30 -41 82 -55 115 -14 33 -34 69 -44 80 -11 11 -31 44 -46 73 -14 30 -43 73 -64 95 -21 23 -45 56 -54 72 -8 17 -38 56 -66 88 -28 32 -51 62 -51 66 0 4 -20 28 -46 52 -25 24 -51 56 -59 70 -15 28 -271 285 -401 404 -158 143 -210 193 -338 321 -148 149 -179 186 -224 266 -51 89 -65 148 -64 276 1 170 31 294 105 439 23 46 72 142 110 214 37 72 67 136 67 141 0 6 16 45 35 88 25 55 38 105 47 171 16 120 11 386 -8 448 -7 25 -14 64 -14 86 0 22 -10 65 -21 95 -11 30 -27 83 -35 117 -8 34 -33 91 -55 127 -21 36 -39 69 -39 73 0 20 -46 92 -89 139 -25 29 -60 72 -78 96 -17 25 -58 62 -90 83 -32 21 -78 56 -102 76 -23 21 -66 47 -95 58 -28 10 -77 33 -108 49 -31 17 -83 36 -115 42 -32 7 -84 20 -115 31 -46 15 -97 20 -281 24 -123 2 -227 2 -229 -1z m302 -308 c138 -40 273 -99 324 -142 46 -38 144 -152 164 -191 17 -31 15 -89 -4 -129 -31 -64 -121 -94 -193 -64 -16 6 -58 47 -94 89 -62 74 -69 79 -148 109 -190 70 -229 76 -468 69 -234 -7 -360 -27 -571 -87 -207 -58 -281 -49 -328 41 -50 96 6 196 122 214 41 7 112 25 196 52 52 16 284 60 350 66 25 2 160 3 300 2 246 -1 258 -2 350 -29z m607 -897 c42 -26 65 -69 65 -124 0 -85 -59 -145 -143 -145 -138 0 -200 164 -97 256 30 28 44 32 97 33 28 1 56 -6 78 -20z"/><path d="M8480 7268 c-25 -4 -101 -13 -170 -18 -69 -5 -145 -14 -170 -19 -25 -6 -81 -10 -126 -11 -98 0 -167 -19 -231 -65 -26 -18 -68 -45 -93 -59 -73 -40 -124 -90 -160 -158 -18 -35 -44 -77 -56 -94 -13 -16 -33 -52 -45 -80 -12 -27 -37 -74 -55 -104 -18 -30 -40 -82 -48 -115 -8 -33 -24 -85 -34 -115 -14 -39 -21 -96 -26 -196 -5 -122 -4 -150 13 -205 10 -35 22 -84 25 -109 8 -56 44 -136 83 -181 16 -19 41 -55 56 -81 15 -25 48 -65 74 -87 186 -159 201 -170 283 -190 25 -7 71 -23 104 -37 95 -42 352 -60 631 -45 130 7 161 16 245 64 14 8 55 29 91 46 66 31 102 64 166 152 18 24 48 63 67 86 19 23 42 63 51 90 9 26 31 84 47 128 25 65 32 99 35 180 8 198 8 341 0 385 -4 25 -12 81 -17 124 -11 84 -33 145 -73 198 -13 18 -36 57 -51 87 -15 29 -58 87 -96 128 -39 41 -70 79 -70 83 0 5 -24 25 -52 46 -29 21 -73 56 -98 77 -88 77 -203 114 -300 95z m333 -358 c57 -50 147 -244 147 -317 0 -145 -190 -199 -271 -77 -10 16 -19 36 -19 44 0 8 -20 54 -44 102 -58 115 -62 136 -37 192 26 59 69 86 138 86 44 0 58 -5 86 -30z"/></g></svg>