<svg xmlns="http://www.w3.org/2000/svg" xmlns:xlink="http://www.w3.org/1999/xlink" version="1.1" x="0px" y="0px" viewBox="0 0 100 125" style="enable-background:new 0 0 100 100;" xml:space="preserve"><style type="text/css">
	.st0{fill-rule:evenodd;clip-rule:evenodd;}
	<!-- .st0{fill-rule:#00ff00;
	clip-rule: #00ff00;} -->
</style><g><path fill="#007700" d="M72.5578232,13.294199C68.4322891,6.1520381,65.7176208,2.5,58.1771774,2.5H38.6248703   c7.2607193,0.1295884,9.9642677,3.7705994,14.0257111,10.794199l8.8510323,15.3355446l-10.316185,5.9559765l24.4870338,1.3459473   l11.0769424-21.8782997l-10.316185,5.9567327L72.5578232,13.294199z"/><path fill="#007700" d="M19.1070576,65.3094025l8.8561249-15.3327179l10.3161869,5.9559784L27.2016754,34.0543633l-24.4870358,1.345211   l10.3169365,5.9567375L9.1527805,48.069088c-4.1225152,7.1434822-5.9271402,11.3206558-2.1572943,17.8507881l9.7757769,16.9326401   c-3.5180216-6.352005-1.7170534-10.5142899,2.3348522-17.542984L19.1070576,65.3094025z"/><path fill="#007700" d="M80.9249878,68.3497849l-17.7065849-0.0029449V56.4350662L49.8096275,76.9675293L63.2184029,97.5V85.587471   l7.7532539,0.0029526c8.2480469-0.0022125,12.7680893-0.5271988,16.5379333-7.0573425l9.7757721-16.9326439   c-3.7425156,6.2232628-8.2480469,6.744442-16.3605652,6.7497215L80.9249878,68.3497849z"/><path fill="#007700" d="M81.9371948,64.0333099c11.8787842,0.2157288,16.9746704-5.0768471,12.8615799-12.2152405l-8.0448456-13.9292068   l-4.6504822,9.1846619l-10.2867813-0.5647392L81.9371948,64.0333099z"/><path fill="#007700" d="M31.3967552,9.544899L23.3564301,23.476366l10.2794266-0.5647411l4.6534958,9.1912613l10.1175117-17.5267677   C42.6540833,4.1803904,35.5230408,2.4140286,31.3969421,9.5450687L31.3967552,9.544899z"/><path fill="#007700" d="M22.3397007,68.3441315c-6.1259995,10.1793365-4.0908489,17.2381821,4.1483364,17.2462921l16.0851784-0.0022125   l-5.6281929-8.619751l5.6327133-8.6257858L22.3397007,68.3441315z"/></g></svg>