<?xml version="1.0" encoding="iso-8859-1"?>
<!-- Uploaded to: SVG Repo, www.svgrepo.com, Generator: SVG Repo Mixer Tools -->
<svg fill="#000000" height="800px" width="800px" version="1.1" id="Layer_1" xmlns="http://www.w3.org/2000/svg" xmlns:xlink="http://www.w3.org/1999/xlink" 
	 viewBox="0 0 512 512" xml:space="preserve">
<g>
	<g>
		<path fill="#007700" d="M418.909,162.909c-6.982,0-11.636,4.655-11.636,11.636v302.545c0,6.982-4.655,11.636-11.636,11.636H116.364
			c-6.982,0-11.636-4.655-11.636-11.636V174.545c0-6.982-4.655-11.636-11.636-11.636c-6.982,0-11.636,4.655-11.636,11.636v302.545
			c0,19.782,15.127,34.909,34.909,34.909h279.273c19.782,0,34.909-15.127,34.909-34.909V174.545
			C430.545,167.564,425.891,162.909,418.909,162.909z"/>
	</g>
</g>
<g>
	<g>
		<path fill="#007700" d="M418.909,69.818h-93.091V34.909C325.818,15.127,310.691,0,290.909,0h-69.818c-19.782,0-34.909,15.127-34.909,34.909
			c0,6.982,4.655,11.636,11.636,11.636s11.636-4.655,11.636-11.636c0-6.982,4.655-11.636,11.636-11.636h69.818
			c6.982,0,11.636,4.655,11.636,11.636v46.545c0,6.982,4.655,11.636,11.636,11.636h104.727c6.982,0,11.636,4.655,11.636,11.636
			v11.636H81.455v-11.636c0-6.982,4.655-11.636,11.636-11.636h174.545c6.982,0,11.636-4.655,11.636-11.636
			s-4.655-11.636-11.636-11.636H93.091c-19.782,0-34.909,15.127-34.909,34.909V128c0,6.982,4.655,11.636,11.636,11.636h372.364
			c6.982,0,11.636-4.655,11.636-11.636v-23.273C453.818,84.945,438.691,69.818,418.909,69.818z"/>
	</g>
</g>
<g>
	<g>
		<path fill="#007700" d="M354.909,343.273l-16.291-27.927c-3.491-5.818-10.473-6.982-16.291-4.655c-5.818,3.491-6.982,10.473-4.655,16.291
			l16.291,27.927c3.491,4.655,1.164,9.309,0,11.636c-2.327,3.491-6.982,5.818-11.636,5.818h-26.764l3.491-3.491
			c4.655-4.655,4.655-11.636,0-16.291s-11.636-4.655-16.291,0l-24.436,23.273C257.164,378.182,256,380.509,256,384
			s1.164,5.818,3.491,8.145l24.436,23.273c2.327,2.327,4.655,3.491,8.145,3.491s5.818-1.164,8.145-3.491
			c4.655-4.655,4.655-11.636,0-16.291l-3.491-3.491h26.764c12.8,0,24.436-6.982,31.418-17.455
			C360.727,367.709,360.727,354.909,354.909,343.273z"/>
	</g>
</g>
<g>
	<g>
		<path fill="#007700" d="M218.764,371.2h-31.418c-4.655,0-9.309-2.327-11.636-5.818c-1.164-1.164-2.327-5.818,0-11.636l15.127-25.6l1.164,3.491
			c1.164,4.655,5.818,8.146,11.636,8.146c1.164,0,2.327,0,3.491,0c5.818-1.164,9.309-8.146,8.145-13.964l-9.309-31.418
			c-2.327-5.818-8.145-9.309-13.964-6.982l-33.745,8.145c-5.818,1.164-10.473,8.145-8.145,13.964
			c1.164,5.818,8.145,10.473,13.964,8.146l8.145-2.327l-16.291,26.764c-5.818,10.473-5.818,23.273,0,34.909
			c6.982,11.636,18.618,17.455,31.418,17.455h31.418c6.982,0,11.636-4.655,11.636-11.636C230.4,375.855,225.745,371.2,218.764,371.2
			z"/>
	</g>
</g>
<g>
	<g>
		<path fill="#007700" d="M316.509,235.055c-5.818-1.164-12.8,2.327-13.964,8.145l-2.327,6.982l-12.8-22.109
			c-6.982-11.636-18.618-17.455-31.418-17.455c-12.8,0-24.436,6.982-31.418,17.455l-12.8,22.109
			c-3.491,5.818-1.164,12.8,4.655,16.291c5.818,3.491,12.8,1.164,16.291-4.655l12.8-22.109c4.655-8.145,17.455-8.145,22.109,0
			l11.636,19.782l-4.655-1.164c-5.818-1.164-12.8,2.327-13.964,8.145s2.327,12.8,8.146,13.964l33.745,8.146c1.164,0,2.327,0,2.327,0
			c4.655,0,9.309-3.491,11.636-8.146l9.309-31.418C325.818,243.2,322.327,236.218,316.509,235.055z"/>
	</g>
</g>
</svg>